<?xml version="1.0" standalone="no"?>
<!DOCTYPE svg PUBLIC "-//W3C//DTD SVG 20010904//EN"
 "http://www.w3.org/TR/2001/REC-SVG-20010904/DTD/svg10.dtd">
<svg version="1.0" xmlns="http://www.w3.org/2000/svg"
 width="359.000000pt" height="359.000000pt" viewBox="0 0 359.000000 359.000000"
 preserveAspectRatio="xMidYMid meet">
<metadata>
Created by potrace 1.14, written by Peter Selinger 2001-2017
</metadata>
<g transform="translate(0.000000,359.000000) scale(0.100000,-0.100000)"
fill="#000000" stroke="none">
<path d="M1810 3517 c-36 -34 -112 -105 -169 -157 -57 -52 -118 -108 -136
-125 -17 -16 -56 -52 -86 -79 -30 -28 -103 -96 -164 -152 -60 -56 -124 -115
-141 -131 -30 -27 -185 -170 -249 -229 -66 -61 -251 -232 -303 -280 l-55 -52
38 -33 c21 -19 53 -47 71 -64 36 -34 70 -65 229 -210 61 -55 115 -104 121
-110 6 -5 51 -46 99 -90 49 -44 117 -107 152 -139 35 -32 72 -66 82 -75 15
-13 94 -85 229 -208 14 -13 63 -58 110 -100 48 -43 113 -103 147 -134 33 -32
71 -66 84 -76 l24 -20 83 96 84 96 -48 45 c-27 25 -118 108 -203 185 -85 76
-161 146 -170 155 -8 8 -58 53 -109 100 -52 47 -121 110 -154 140 -140 128
-197 180 -286 260 -51 47 -118 108 -147 136 l-54 50 103 94 c57 52 112 104
123 115 11 11 67 63 125 115 57 52 118 109 136 125 17 17 71 67 120 111 49 45
108 99 130 120 23 22 83 77 134 124 51 47 129 119 173 160 44 41 88 81 98 88
25 17 24 21 -14 63 -17 19 -54 61 -81 92 -26 31 -51 57 -55 57 -3 0 -35 -29
-71 -63z"/>
<path d="M1622 2444 c-40 -47 -75 -91 -78 -98 -3 -7 34 -48 83 -92 48 -43 113
-102 143 -131 30 -28 66 -61 80 -73 14 -12 65 -58 114 -103 49 -45 97 -89 106
-97 10 -8 59 -53 110 -100 51 -47 102 -93 114 -103 11 -10 44 -40 71 -65 28
-26 95 -88 150 -137 55 -50 120 -109 144 -132 l45 -43 -25 -20 c-13 -12 -51
-46 -84 -77 -86 -81 -160 -150 -240 -223 -39 -36 -120 -111 -180 -167 -61 -56
-123 -113 -140 -128 -16 -15 -57 -53 -90 -84 -33 -31 -114 -105 -180 -166 -66
-60 -143 -132 -172 -159 l-52 -49 78 -90 c43 -50 82 -92 87 -94 6 -2 19 5 29
15 11 9 110 101 220 202 110 102 205 189 211 195 6 5 36 33 65 60 30 28 113
104 184 170 72 65 155 142 185 170 30 29 150 139 265 245 116 107 211 197 213
202 2 4 -12 21 -30 37 -18 16 -45 39 -59 52 -14 13 -67 62 -119 109 -51 47
-98 90 -104 95 -6 6 -114 105 -241 220 -126 115 -235 214 -241 220 -6 5 -48
44 -94 85 -46 41 -93 84 -105 95 -11 11 -43 40 -70 64 -28 25 -98 89 -156 143
-101 93 -153 138 -161 138 -1 0 -36 -39 -76 -86z"/>
</g>
</svg>
